<?xml version="1.0" encoding="UTF-8"?>
<svg width="512px" height="512px" viewBox="81.563 81.452 348.874 348.874" version="1.1" xmlns="http://www.w3.org/2000/svg" xmlns:xlink="http://www.w3.org/1999/xlink">
    <!-- Generator: Sketch 56.3 (81716) - https://sketch.com -->
    <title>it / bnl_business_it</title>
    <desc>Created with Sketch.</desc>
    <g id="it-/-bnl_business_it" stroke="none" stroke-width="1" fill="none" fill-rule="evenodd">
        <g id="Group-2" transform="translate(81.000000, 73.794118)" fill="#009945">
            <path d="M295.241081,81.7713514 C298.812973,91.812 290.310054,147.028 283.266162,161.727243 C282.957405,138.588649 280.980757,109.368757 272.856216,96.736973 C251.255351,110.028649 244.623135,111.079027 221.302919,125.799459 C234.873081,110.307135 239.592216,103.741514 248.076973,90.7162162 C226.473081,91.9058378 195.116108,94.6301622 172.649514,99.8427027 C192.213189,88.9665946 230.886486,76.7222703 251.273514,73.8496216 C246.533189,67.0176216 208.253405,45.2139459 198.71827,41.0638919 C229.015784,43.5309189 266.075676,55.3454054 284.004757,66.9631351 C291.221189,64.6504865 298.464865,64.4688649 311.55373,63.2610811 C308.217946,69.3060541 308.154378,72.8234595 295.241081,81.7713514 L295.241081,81.7713514 Z M183.244108,294.362486 C184.106811,298.821297 184.775784,301.330703 185.668757,304.793622 C181.85773,305.526162 176.630054,305.889405 171.102703,305.707784 C160.477838,312.255243 146.048,317.162054 135.159784,319.907568 C141.634595,315.560757 147.352649,311.008108 154.015135,304.627135 C147.352649,303.222595 141.116973,301.076432 134.693622,297.613514 C145.152,297.559027 153.703351,296.381514 164.437189,293.321189 C170.706162,285.962486 175.497946,279.651135 181.167568,271.674919 C181.391568,277.244649 181.715459,281.434054 182.196757,286.410486 C192.367568,281.322054 200.077405,276.442486 208.937514,269.92227 C200.679784,278.782378 193.327135,286.174378 183.244108,294.362486 L183.244108,294.362486 Z M117.811892,198.299784 C112.747676,185.462162 105.395027,159.723351 105.395027,159.723351 L105.395027,159.708216 C91.3132973,167.657189 58.9725405,199.601405 58.9543784,199.601405 C76.7321081,162.190378 94.7641081,145.039243 94.7641081,145.039243 L94.7822703,145.039243 C88.5829189,138.509946 72.3005405,135.249838 60.4345946,134.665622 C66.6188108,131.998811 82.4834595,128.896108 94.64,128.339135 C106.820757,127.945622 114.188541,128.732649 114.221838,128.732649 C125.113081,119.660649 141.595243,112.071892 147.382919,111.148649 C143.468973,116.379351 138.985946,126.156649 137.838703,130.751676 C169.592216,135.343676 195.161514,152.385838 195.303784,152.479676 C195.318919,152.479676 195.334054,152.479676 195.355243,152.488757 L195.318919,152.488757 L195.303784,152.479676 C167.294703,147.336757 152.683243,147.942162 142.303568,148.938054 C131.914811,150.003568 129.820108,151.296108 129.820108,151.296108 C122.310054,168.471459 117.811892,198.266486 117.811892,198.299784 L117.811892,198.299784 Z M82.7256216,312.143243 C73.5204324,302.692865 67.8175135,294.253514 62.3567568,281.866919 C52.0527568,276.905622 44.6335135,272.319676 35.4949189,266.38973 C42.0393514,263.305189 47.6908108,261.252865 55.6428108,258.973514 C53.1334054,244.292432 53.8205405,231.124865 55.776,212.726595 C59.4023784,230.113838 62.5444324,242.564 69.6549189,255.589297 C78.3485405,253.782162 85.6648649,252.644 95.7932973,251.130486 C90.2841081,259.554703 86.9331892,266.301946 83.996973,274.759459 C93.7833514,284.391459 102.713081,290.015676 115.151135,294.83773 C102.11373,294.401838 92.3273514,292.609838 80.8367568,289.077297 C80.0285405,297.574162 80.5431351,304.08227 82.7256216,312.143243 L82.7256216,312.143243 Z M0.563027027,363.856973 L349.436973,363.856973 L349.436973,0.332216216 L0.563027027,0.332216216 L0.563027027,363.856973 Z" id="Fill-2"></path>
        </g>
    </g>
</svg>